<?xml version="1.0" standalone="no"?>
<!DOCTYPE svg PUBLIC "-//W3C//DTD SVG 20010904//EN"
 "http://www.w3.org/TR/2001/REC-SVG-20010904/DTD/svg10.dtd">
<svg version="1.0" xmlns="http://www.w3.org/2000/svg"
 width="238.000000pt" height="163.000000pt" viewBox="0 0 238.000000 163.000000"
 preserveAspectRatio="xMidYMid meet">
<metadata>
Created by potrace 1.10, written by Peter Selinger 2001-2011
</metadata>
<g transform="translate(0.000000,163.000000) scale(0.100000,-0.100000)"
fill="#000000" stroke="none">
<path d="M1160 1313 l0 -220 -77 -11 c-169 -22 -579 -83 -593 -87 -8 -3 -53
24 -99 60 -47 36 -86 64 -87 62 -1 -1 18 -96 42 -212 l43 -210 1 -273 0 -273
42 3 42 3 23 155 c12 85 23 160 23 165 1 11 99 -267 107 -302 5 -21 11 -23 65
-23 52 0 59 2 54 18 -10 33 -66 295 -63 298 1 2 135 5 297 9 162 3 316 8 343
11 l47 5 0 -171 0 -171 47 3 47 3 32 146 c17 80 33 151 35 158 2 6 27 -60 54
-149 l50 -160 47 0 48 0 2 422 3 422 170 66 c169 66 170 66 173 99 l3 32 -123
-5 -123 -6 115 25 c63 13 118 25 123 25 4 0 7 13 7 30 0 32 -5 35 -90 44 -63
7 -433 58 -445 61 -6 2 -22 37 -35 79 -14 41 -27 76 -30 76 -3 0 -19 -44 -35
-98 l-31 -97 -50 -3 -50 -3 -77 107 -77 107 0 -220z m110 24 c1 -24 48 -46 96
-47 60 0 66 5 90 83 10 31 21 57 25 57 4 0 10 -13 14 -30 7 -31 51 -74 66 -64
5 3 15 2 21 -2 7 -5 31 -9 53 -11 38 -3 214 -28 280 -39 17 -3 46 -7 65 -10
57 -7 69 -16 35 -25 -16 -4 -59 -15 -95 -25 -82 -21 -97 -32 -75 -53 12 -13
35 -15 110 -13 52 2 95 1 95 -2 0 -8 -68 -37 -185 -81 -55 -20 -115 -48 -132
-61 l-33 -25 0 -405 c0 -399 0 -404 -20 -404 -24 0 -27 7 -76 163 -20 64 -43
125 -50 135 -22 29 -48 -7 -68 -95 -39 -175 -48 -203 -67 -203 -18 0 -19 10
-19 138 0 152 -4 174 -28 188 -11 6 -135 6 -355 -1 -360 -11 -357 -10 -357
-60 0 -11 7 -48 15 -82 8 -34 17 -77 20 -95 3 -18 8 -45 11 -61 5 -24 3 -27
-20 -27 -30 0 -33 5 -81 145 -56 163 -73 189 -103 152 -10 -11 -30 -123 -46
-252 -3 -22 -5 -41 -6 -42 0 -2 -7 -3 -15 -3 -18 0 -17 -23 -15 265 1 222 -1
249 -24 355 -26 121 -32 151 -43 215 -5 33 -4 38 8 29 8 -6 33 -25 57 -43 43
-33 44 -34 120 -27 42 4 93 11 112 16 19 5 62 11 95 15 33 3 68 8 79 11 14 5
16 3 11 -7 -6 -9 -2 -9 11 2 10 9 38 17 60 18 23 1 52 4 65 7 13 2 58 9 99 15
102 15 122 29 120 82 -1 23 -1 101 -1 172 l2 130 39 -45 c22 -25 40 -49 40
-53z"/>
</g>
</svg>
