<?xml version="1.0" standalone="no"?>
<!DOCTYPE svg PUBLIC "-//W3C//DTD SVG 20010904//EN"
 "http://www.w3.org/TR/2001/REC-SVG-20010904/DTD/svg10.dtd">
<svg version="1.0" xmlns="http://www.w3.org/2000/svg"
 width="774.000000pt" height="501.000000pt" viewBox="0 0 774.000000 501.000000"
 preserveAspectRatio="xMidYMid meet">
<metadata>
Created by potrace 1.10, written by Peter Selinger 2001-2011
</metadata>
<g transform="translate(0.000000,501.000000) scale(0.100000,-0.100000)"
fill="#000000" stroke="none">
<path d="M0 2505 l0 -2505 3870 0 3870 0 0 2505 0 2505 -3870 0 -3870 0 0
-2505z m4007 1877 c68 -92 167 -227 220 -299 l97 -133 142 0 141 0 15 38 c20
50 38 100 48 137 11 39 29 91 46 133 8 18 14 39 14 47 0 8 6 29 14 47 23 56
38 102 45 138 5 29 11 35 31 35 20 0 26 -6 31 -35 7 -34 20 -76 44 -135 18
-44 36 -96 44 -130 4 -17 13 -40 19 -52 7 -12 12 -31 12 -43 0 -12 9 -24 23
-29 59 -22 97 -31 136 -31 24 0 85 -6 135 -14 50 -8 143 -22 206 -31 63 -8
158 -22 210 -30 198 -30 307 -45 350 -49 25 -2 77 -9 115 -15 39 -6 102 -15
140 -21 39 -6 111 -15 160 -20 50 -6 108 -16 130 -24 l40 -14 3 -66 c2 -36 -1
-74 -7 -83 -6 -12 -36 -24 -93 -36 -45 -10 -101 -23 -123 -29 -22 -6 -60 -15
-85 -19 -59 -10 -133 -27 -196 -45 -28 -8 -64 -14 -80 -14 -16 0 -36 -4 -43
-9 -25 -16 28 -23 111 -17 199 17 253 20 378 20 l135 1 3 -79 c3 -70 0 -81
-19 -102 -13 -13 -28 -24 -35 -24 -8 0 -28 -6 -46 -14 -18 -8 -53 -22 -78 -31
-25 -10 -58 -23 -75 -30 -16 -7 -50 -21 -75 -30 -25 -9 -58 -23 -73 -31 -16
-8 -35 -14 -44 -14 -8 0 -27 -6 -41 -14 -15 -8 -46 -21 -69 -30 -24 -9 -62
-23 -85 -32 -24 -9 -55 -22 -70 -30 -14 -8 -33 -14 -41 -14 -9 0 -28 -6 -44
-14 -15 -8 -48 -22 -73 -31 -25 -9 -58 -23 -73 -31 -16 -8 -36 -14 -45 -14 -9
0 -27 -8 -39 -18 l-23 -17 -2 -1255 -3 -1255 -124 -3 c-130 -3 -171 8 -171 44
0 15 -17 73 -45 154 -7 19 -27 82 -45 140 -18 58 -38 121 -45 140 -7 19 -21
62 -30 95 -10 33 -23 76 -30 95 -7 19 -21 62 -30 95 -10 33 -24 76 -31 95 -7
19 -14 43 -16 53 -9 53 -37 -10 -57 -128 -8 -45 -15 -76 -49 -225 -6 -25 -18
-79 -27 -120 -9 -41 -22 -100 -30 -130 -7 -30 -21 -91 -30 -135 -26 -124 -34
-152 -49 -164 -9 -8 -55 -11 -137 -9 l-124 3 -3 491 c-2 377 -5 494 -15 502
-7 6 -38 6 -82 1 -38 -4 -266 -11 -505 -14 -239 -3 -527 -10 -640 -14 -113 -5
-329 -9 -481 -10 -152 -1 -291 -4 -309 -7 -31 -7 -32 -9 -27 -43 4 -20 13 -67
22 -106 9 -38 20 -92 25 -120 5 -27 13 -68 18 -90 6 -22 17 -74 26 -115 54
-259 75 -359 87 -413 6 -27 8 -51 4 -55 -4 -4 -73 -8 -155 -10 -139 -3 -150
-2 -169 17 -12 12 -21 31 -21 44 0 13 -5 28 -11 34 -6 6 -14 26 -19 44 -5 19
-18 59 -30 89 -12 30 -26 69 -30 85 -5 17 -25 75 -45 130 -20 55 -40 114 -45
130 -10 35 -28 88 -45 130 -16 39 -67 190 -82 244 -8 31 -23 -9 -38 -109 -9
-58 -23 -142 -31 -187 -8 -45 -14 -97 -14 -115 0 -18 -7 -58 -15 -88 -8 -30
-15 -75 -15 -100 0 -25 -4 -60 -9 -78 -5 -18 -15 -76 -21 -130 -6 -53 -18
-107 -26 -120 -14 -22 -20 -23 -126 -20 l-112 3 -7 29 c-5 16 -8 388 -8 826 0
476 -4 815 -10 841 -5 24 -17 82 -26 129 -18 97 -40 205 -60 300 -7 36 -21
103 -30 150 -9 47 -23 114 -30 150 -7 36 -21 103 -30 150 -9 47 -23 114 -30
150 -24 111 -27 147 -15 155 11 7 67 -27 110 -67 12 -12 42 -35 66 -52 24 -17
96 -72 161 -122 112 -86 155 -112 178 -105 6 2 44 7 85 11 41 4 107 13 145 19
89 15 228 35 375 56 114 15 240 34 375 55 39 6 108 15 156 20 47 5 97 14 113
19 15 6 48 11 74 11 26 0 65 5 87 11 22 5 76 14 120 19 85 10 183 24 278 41
33 6 93 14 134 19 41 4 77 11 81 15 4 4 8 286 10 628 1 342 5 628 7 635 2 6 8
12 12 12 4 -1 63 -76 130 -168z"/>
</g>
</svg>
