<?xml version="1.0" standalone="no"?>
<!DOCTYPE svg PUBLIC "-//W3C//DTD SVG 20010904//EN"
 "http://www.w3.org/TR/2001/REC-SVG-20010904/DTD/svg10.dtd">
<svg version="1.0" xmlns="http://www.w3.org/2000/svg"
 width="714.000000pt" height="489.000000pt" viewBox="0 0 714.000000 489.000000"
 preserveAspectRatio="xMidYMid meet">
<metadata>
Created by potrace 1.10, written by Peter Selinger 2001-2011
</metadata>
<g transform="translate(0.000000,489.000000) scale(0.100000,-0.100000)"
fill="#000000" stroke="none">
<path d="M3479 4544 c0 -5 -1 -180 0 -389 0 -411 -10 -870 -20 -880 -4 -3 -24
-8 -45 -11 -22 -3 -79 -11 -129 -19 -198 -31 -243 -37 -323 -45 -45 -5 -87
-12 -93 -16 -6 -3 -45 -10 -87 -14 -74 -8 -117 -14 -317 -45 -49 -8 -142 -21
-205 -30 -63 -9 -158 -22 -210 -30 -52 -8 -147 -21 -210 -30 -63 -9 -140 -21
-170 -26 -30 -5 -95 -14 -143 -19 -48 -5 -92 -12 -97 -15 -5 -3 -19 0 -32 7
-25 14 -260 188 -268 198 -3 3 -26 21 -52 38 -25 18 -52 38 -60 45 -27 27 -92
66 -101 60 -11 -6 -6 -37 48 -293 7 -36 21 -103 30 -150 9 -47 23 -114 30
-150 7 -36 21 -103 30 -150 9 -47 23 -114 30 -150 7 -36 20 -101 29 -145 9
-44 23 -112 31 -152 13 -61 15 -196 15 -877 0 -800 0 -805 20 -811 27 -9 191
-3 212 7 20 9 39 108 68 343 4 33 13 94 19 135 7 41 18 116 26 165 32 212 46
290 55 299 6 6 11 4 13 -5 2 -8 10 -30 16 -49 7 -19 16 -48 21 -65 12 -43 31
-97 43 -120 6 -11 14 -33 18 -50 4 -16 17 -55 29 -85 12 -30 26 -68 30 -85 5
-16 25 -75 45 -130 20 -55 40 -113 45 -130 13 -48 32 -98 46 -127 8 -14 14
-35 14 -45 0 -11 6 -27 13 -37 11 -15 32 -17 166 -18 84 0 156 3 161 8 6 6 6
24 1 44 -5 19 -17 71 -26 115 -9 44 -23 112 -31 150 -8 39 -22 104 -30 145 -9
41 -22 102 -29 135 -8 33 -16 74 -19 90 -3 17 -14 72 -26 124 -27 126 -27 129
13 135 17 3 169 8 337 12 465 8 618 13 653 18 18 3 232 8 477 11 245 3 469 8
498 11 28 4 53 5 54 3 2 -2 5 -229 8 -504 l5 -500 125 2 c69 1 128 2 132 2 12
1 38 70 38 99 0 14 6 48 14 76 8 28 22 87 32 131 9 44 21 94 26 110 5 17 13
53 18 80 4 28 15 79 23 115 67 293 73 315 83 313 5 -1 10 -10 12 -20 2 -10 9
-34 16 -53 8 -19 22 -62 31 -95 10 -33 23 -76 30 -95 7 -19 27 -82 45 -140 18
-58 38 -121 45 -140 7 -19 21 -62 30 -95 10 -33 23 -76 30 -95 7 -19 23 -68
35 -108 13 -40 30 -76 39 -81 9 -4 72 -7 141 -7 l125 1 5 1260 5 1259 25 12
c14 7 44 19 68 28 75 28 126 48 157 61 17 7 50 21 75 30 25 9 58 23 73 31 16
8 36 14 46 14 9 0 26 7 37 15 10 8 27 15 36 15 9 0 29 6 45 14 15 8 48 22 73
31 25 10 57 23 72 31 14 8 33 14 41 14 9 0 28 6 44 14 15 8 48 22 73 31 25 9
59 23 75 30 17 8 40 17 53 20 37 11 50 43 47 120 -1 39 -3 74 -4 79 -1 8 -169
2 -509 -21 -91 -6 -146 2 -121 18 7 5 29 9 48 9 18 0 54 6 80 14 25 8 82 22
126 31 177 37 222 47 271 61 28 8 60 14 72 14 11 0 23 4 26 9 9 14 15 147 7
158 -10 15 -92 35 -181 44 -47 4 -98 10 -115 14 -16 3 -71 10 -122 15 -51 6
-104 15 -118 20 -15 6 -45 10 -67 10 -22 0 -82 6 -132 14 -85 14 -140 22 -421
62 -60 8 -149 22 -196 30 -48 8 -109 14 -135 15 -27 0 -71 8 -99 17 -41 14
-50 22 -56 47 -8 34 -25 84 -45 133 -8 18 -14 40 -14 50 0 9 -7 26 -15 36 -8
11 -15 28 -15 38 0 9 -6 32 -14 50 -8 18 -17 45 -21 61 -4 18 -12 27 -25 27
-13 0 -22 -9 -26 -27 -3 -16 -10 -39 -16 -53 -6 -14 -14 -38 -18 -55 -5 -16
-14 -46 -21 -65 -6 -19 -17 -51 -24 -70 -7 -19 -18 -51 -24 -70 -7 -19 -16
-48 -21 -65 -10 -37 -28 -87 -48 -137 l-15 -38 -141 0 -142 0 -112 153 c-61
83 -156 212 -209 285 -98 133 -132 173 -134 156z"/>
</g>
</svg>
